<?xml version="1.0" encoding="UTF-8" standalone="no"?>
<!-- Created with Inkscape (http://www.inkscape.org/) -->

<svg
   width="512"
   height="512"
   viewBox="0 0 512 512"
   version="1.1"
   id="svg1"
   xml:space="preserve"
   inkscape:version="1.4.2 (f4327f4, 2025-05-13)"
   sodipodi:docname="Logo MS.svg"
   inkscape:export-batch-path="C:\Users\mathe\Documents"
   inkscape:export-batch-name="Logo MS Parte 2"
   xmlns:inkscape="http://www.inkscape.org/namespaces/inkscape"
   xmlns:sodipodi="http://sodipodi.sourceforge.net/DTD/sodipodi-0.dtd"
   xmlns="http://www.w3.org/2000/svg"
   xmlns:svg="http://www.w3.org/2000/svg"><sodipodi:namedview
     id="namedview1"
     pagecolor="#ffffff"
     bordercolor="#000000"
     borderopacity="0.25"
     inkscape:showpageshadow="2"
     inkscape:pageopacity="0.0"
     inkscape:pagecheckerboard="0"
     inkscape:deskcolor="#d1d1d1"
     inkscape:document-units="px"
     inkscape:zoom="1.4142136"
     inkscape:cx="152.02796"
     inkscape:cy="308.65211"
     inkscape:window-width="2400"
     inkscape:window-height="1261"
     inkscape:window-x="-9"
     inkscape:window-y="-9"
     inkscape:window-maximized="1"
     inkscape:current-layer="layer1" /><defs
     id="defs1" /><g
     inkscape:groupmode="layer"
     id="layer2"
     inkscape:label="Camada 2"
     style="display:inline"
     sodipodi:insensitive="true"><g
       id="g1"
       transform="matrix(1.4600132,0,0,1.5659692,-492.45277,-521.01873)"
       style="display:inline"><g
         id="g28"
         transform="translate(-0.25684699,-0.95787324)"
         style="display:inline"
         sodipodi:insensitive="true" /><path
         d="M 562.00314,543 562,542.99686 C 488.58295,489.46694 413.39705,437.47789 339.00314,385 l -0.003,-0.003 -0.003,267.00286 0.003,0.003 h 34 l 0.003,-0.003 c -0.45935,-66.97511 0.64304,-133.9633 -0.009,-200.93685 l 2.80597,-0.0234 156.87913,111.18903 c 2.6761,1.8967 4.87287,3.06949 6.8978,5.02956 2.5987,2.51546 4.89561,5.37297 6.58641,8.48951 2.36131,4.35244 4.84293,9.05621 4.79321,13.93354 -0.0986,9.67235 -2.29053,21.05582 -10.06713,27.45848 -10.39391,8.55756 -27.08685,10.24231 -40.72554,7.90846 -10.792,-1.84672 -21.87742,-7.87288 -27.74139,-16.51926 C 463.26934,595.03258 466.00314,561 466.00314,561 l -0.003,-0.003 h -33 l -0.36624,21.79008 c -0.22451,13.35786 5.95712,47.00583 24.77369,58.46381 30.75524,18.72782 85.37076,21.46179 110.12418,-3.84288 9.61422,-9.82833 17.3889,-30.45851 16.58554,-46.90382 -0.40393,-8.26872 -2.85159,-21.29204 -7.79524,-30.76935 C 572.97468,553.31768 562.00314,543 562.00314,543 Z"
         fill="#000000"
         id="path2"
         style="display:inline"
         sodipodi:nodetypes="ccccccccccsaaaaaacccsassac" /></g></g><g
     inkscape:label="Camada 1"
     inkscape:groupmode="layer"
     id="layer1"
     style="display:inline"
     sodipodi:insensitive="true"><path
       id="path1"
       d="m 453.98876,428.99351 c 7.50246,8.8159 18.0792,14.93622 27.58213,21.87516 9.54725,6.97129 19.70152,13.18814 29.52585,19.81636 19.34418,13.05101 53.58938,35.32545 57.92808,39.28725 l 0.003,0.004 0.003,-0.004 c 0,0 31.64799,-28.67178 79.02506,-75.98144 h 0.99929 l -0.004,218.00236 0.004,0.002 h 36.00005 l 0.003,-0.002 V 351.00017 l -0.003,-0.004 -0.004,0.004 c -14.43206,14.41138 -80.21346,76.09128 -120.03986,115.972 -6.39261,-3.77103 -55.00168,-36.14158 -78.12224,-53.22855 -8.26662,-6.10935 -9.89564,-10.75716 -9.89564,-10.75716 -0.03,0.54122 -3.99916,-6.52773 -2.84986,-15.82008 0.79505,-6.42818 6.61772,-15.07899 13.68241,-18.83705 11.93906,-6.35099 29.57034,-9.14963 41.15915,-2.36086 8.84599,5.18201 14.38209,10.43474 19.29413,17.41055 2.72974,3.87663 5.25863,13.01966 5.25863,13.01966 l 24.72957,-17.6516 c 0,0 -5.3871,-15.67203 -10.72498,-22.00984 -6.82756,-8.10654 -15.73528,-15.46755 -26.08049,-19.10159 -15.3507,-5.39237 -33.15071,-5.93528 -49.13857,-2.51174 -14.60303,3.127 -30.62938,8.93715 -39.31083,20.32276 -11.29242,14.80987 -12.9295,35.75147 -9.97828,53.71275 1.20779,7.35065 5.99684,14.00862 10.9544,19.83409 z"
       sodipodi:nodetypes="saacccccccccccccscsasaccaaaaas"
       style="display:inline"
       transform="matrix(1.4600132,0,0,1.5659692,-492.82777,-522.51873)"
       sodipodi:insensitive="true" /></g></svg>
