<?xml version="1.0" encoding="UTF-8" standalone="no"?>
<!-- Created with Inkscape (http://www.inkscape.org/) -->

<svg
   width="357.9621"
   height="424.13846"
   viewBox="0 0 357.9621 424.13846"
   version="1.1"
   id="svg1"
   xml:space="preserve"
   inkscape:version="1.4.2 (f4327f4, 2025-05-13)"
   sodipodi:docname="Logo MS.svg"
   inkscape:export-batch-path="C:\Users\mathe\Documents"
   inkscape:export-batch-name="Logo MS Parte 2"
   xmlns:inkscape="http://www.inkscape.org/namespaces/inkscape"
   xmlns:sodipodi="http://sodipodi.sourceforge.net/DTD/sodipodi-0.dtd"
   xmlns="http://www.w3.org/2000/svg"
   xmlns:svg="http://www.w3.org/2000/svg"><sodipodi:namedview
     id="namedview1"
     pagecolor="#2e2e2e"
     bordercolor="#2e2e2e"
     borderopacity="0.25"
     inkscape:showpageshadow="2"
     inkscape:pageopacity="0.0"
     inkscape:pagecheckerboard="0"
     inkscape:deskcolor="#2e2e2e"
     inkscape:document-units="px"
     inkscape:zoom="1.4142136"
     inkscape:cx="152.38151"
     inkscape:cy="308.65211"
     inkscape:window-width="2400"
     inkscape:window-height="1261"
     inkscape:window-x="-9"
     inkscape:window-y="-9"
     inkscape:window-maximized="1"
     inkscape:current-layer="layer1" /><defs
     id="defs1" /><g
     inkscape:groupmode="layer"
     id="layer2"
     inkscape:label="Camada 2"
     style="display:inline"
     sodipodi:insensitive="true"
     transform="translate(-2.4875292,-81.874714)"><g
       id="g1"
       transform="matrix(1.4600132,0,0,1.5659692,-492.45277,-521.01873)"
       style="display:inline"><g
         id="g28"
         transform="translate(-0.25684699,-0.95787324)"
         style="display:inline"
         sodipodi:insensitive="true" /><path
         d="M 562.00314,543 562,542.99686 C 488.58295,489.46694 413.39705,437.47789 339.00314,385 l -0.003,-0.003 -0.003,267.00286 0.003,0.003 h 34 l 0.003,-0.003 c -0.45935,-66.97511 0.64304,-133.9633 -0.009,-200.93685 l 2.80597,-0.0234 156.87913,111.18903 c 2.6761,1.8967 4.87287,3.06949 6.8978,5.02956 2.5987,2.51546 4.89561,5.37297 6.58641,8.48951 2.36131,4.35244 4.84293,9.05621 4.79321,13.93354 -0.0986,9.67235 -2.29053,21.05582 -10.06713,27.45848 -10.39391,8.55756 -27.08685,10.24231 -40.72554,7.90846 -10.792,-1.84672 -21.87742,-7.87288 -27.74139,-16.51926 C 463.26934,595.03258 466.00314,561 466.00314,561 l -0.003,-0.003 h -33 l -0.36624,21.79008 c -0.22451,13.35786 5.95712,47.00583 24.77369,58.46381 30.75524,18.72782 85.37076,21.46179 110.12418,-3.84288 9.61422,-9.82833 17.3889,-30.45851 16.58554,-46.90382 -0.40393,-8.26872 -2.85159,-21.29204 -7.79524,-30.76935 C 572.97468,553.31768 562.00314,543 562.00314,543 Z"
         fill="#2e2e2e"
         id="path2"
         style="display:inline"
         sodipodi:nodetypes="ccccccccccsaaaaaacccsassac" /></g></g></svg>
