<?xml version="1.0" encoding="UTF-8" standalone="no"?>
<!-- Created with Inkscape (http://www.inkscape.org/) -->

<svg
   width="355.23947"
   height="499.57736"
   viewBox="0 0 355.23947 499.57736"
   version="1.1"
   id="svg1"
   xml:space="preserve"
   inkscape:version="1.4.2 (f4327f4, 2025-05-13)"
   sodipodi:docname="Logo MS.svg"
   inkscape:export-batch-path="C:\Users\mathe\Documents"
   inkscape:export-batch-name="Logo MS Parte 1"
   xmlns:inkscape="http://www.inkscape.org/namespaces/inkscape"
   xmlns:sodipodi="http://sodipodi.sourceforge.net/DTD/sodipodi-0.dtd"
   xmlns="http://www.w3.org/2000/svg"
   xmlns:svg="http://www.w3.org/2000/svg"><sodipodi:namedview
     id="namedview1"
     pagecolor="#2e2e2e"
     bordercolor="#2e2e2e"
     borderopacity="0.25"
     inkscape:showpageshadow="2"
     inkscape:pageopacity="0.0"
     inkscape:pagecheckerboard="0"
     inkscape:deskcolor="#d1d1d1"
     inkscape:document-units="px"
     inkscape:zoom="1.4142136"
     inkscape:cx="152.38151"
     inkscape:cy="308.65211"
     inkscape:window-width="2400"
     inkscape:window-height="1261"
     inkscape:window-x="-9"
     inkscape:window-y="-9"
     inkscape:window-maximized="1"
     inkscape:current-layer="layer1" /><defs
     id="defs1" /><g
     inkscape:label="Camada 1"
     inkscape:groupmode="layer"
     id="layer1"
     style="display:inline"
     sodipodi:insensitive="true"
     transform="translate(-152.12679,1.0916924)">
     <path
       id="path1"
       d="m 453.98876,428.99351 c 7.50246,8.8159 18.0792,14.93622 27.58213,21.87516 9.54725,6.97129 19.70152,13.18814 29.52585,19.81636 19.34418,13.05101 53.58938,35.32545 57.92808,39.28725 l 0.003,0.004 0.003,-0.004 c 0,0 31.64799,-28.67178 79.02506,-75.98144 h 0.99929 l -0.004,218.00236 0.004,0.002 h 36.00005 l 0.003,-0.002 V 351.00017 l -0.003,-0.004 -0.004,0.004 c -14.43206,14.41138 -80.21346,76.09128 -120.03986,115.972 -6.39261,-3.77103 -55.00168,-36.14158 -78.12224,-53.22855 -8.26662,-6.10935 -9.89564,-10.75716 -9.89564,-10.75716 -0.03,0.54122 -3.99916,-6.52773 -2.84986,-15.82008 0.79505,-6.42818 6.61772,-15.07899 13.68241,-18.83705 11.93906,-6.35099 29.57034,-9.14963 41.15915,-2.36086 8.84599,5.18201 14.38209,10.43474 19.29413,17.41055 2.72974,3.87663 5.25863,13.01966 5.25863,13.01966 l 24.72957,-17.6516 c 0,0 -5.3871,-15.67203 -10.72498,-22.00984 -6.82756,-8.10654 -15.73528,-15.46755 -26.08049,-19.10159 -15.3507,-5.39237 -33.15071,-5.93528 -49.13857,-2.51174 -14.60303,3.127 -30.62938,8.93715 -39.31083,20.32276 -11.29242,14.80987 -12.9295,35.75147 -9.97828,53.71275 1.20779,7.35065 5.99684,14.00862 10.9544,19.83409 z"
       fill="#2e2e2e"
       sodipodi:nodetypes="saacccccccccccccscsasaccaaaaas"
       style="display:inline"
       transform="matrix(1.4600132,0,0,1.5659692,-492.82777,-522.51873)"
       sodipodi:insensitive="true" /></g>
      </svg>
